<svg width="14" height="14" viewBox="0 0 14 14" fill="none" xmlns="http://www.w3.org/2000/svg">
<g clip-path="url(#clip0_1105_235)">
<path d="M3.45093 3.15161H9.23413V6.69382H9.95703V3.15161C9.95703 2.95989 9.88087 2.77601 9.7453 2.64044C9.60973 2.50487 9.42586 2.42871 9.23413 2.42871H3.45093C3.2592 2.42871 3.07533 2.50487 2.93976 2.64044C2.80419 2.77601 2.72803 2.95989 2.72803 3.15161V11.8264C2.72803 12.0181 2.80419 12.202 2.93976 12.3376C3.07533 12.4732 3.2592 12.5493 3.45093 12.5493H9.23413C9.42586 12.5493 9.60973 12.4732 9.7453 12.3376C9.88087 12.202 9.95703 12.0181 9.95703 11.8264H3.45093V3.15161Z" fill="#F2F2F2"/>
<path d="M11.0994 7.22754C11.0303 7.16832 10.9413 7.13738 10.8503 7.14089C10.7594 7.14441 10.6731 7.18212 10.6087 7.24649C10.5443 7.31086 10.5066 7.39716 10.5031 7.48812C10.4996 7.57909 10.5305 7.66804 10.5898 7.73718L11.8115 8.93358H6.57043C6.47457 8.93358 6.38264 8.97166 6.31485 9.03945C6.24707 9.10723 6.20898 9.19917 6.20898 9.29503C6.20898 9.3909 6.24707 9.48283 6.31485 9.55062C6.38264 9.6184 6.47457 9.65648 6.57043 9.65648H11.8115L10.5898 10.9071C10.5519 10.9395 10.5212 10.9794 10.4995 11.0242C10.4778 11.0691 10.4656 11.1179 10.4637 11.1677C10.4618 11.2175 10.4702 11.2671 10.4883 11.3135C10.5065 11.3599 10.5341 11.402 10.5693 11.4372C10.6045 11.4724 10.6466 11.5 10.693 11.5182C10.7394 11.5364 10.789 11.5447 10.8388 11.5428C10.8886 11.5409 10.9374 11.5287 10.9823 11.507C11.0271 11.4853 11.067 11.4546 11.0994 11.4167L13.2103 9.32033L11.0994 7.22754Z" fill="#F2F2F2"/>
</g>
<defs>
<clipPath id="clip0_1105_235">
<rect width="13.0122" height="13.0122" fill="white" transform="translate(0.920898 0.982422)"/>
</clipPath>
</defs>
</svg>
